#!OML:ASF C:\Vicon Data\Big\jianyuan-13\jianyuan\Session 1\Capture.male.ASF
:FULLY-SPECIFIED
:DEGREES
70
root -8.178161 17.385735 -20.535905 10.131040 7.448569 0.850161
lowerback -7.844613 0.274867 -1.523091 
upperback -0.293553 0.460705 0.146852 
thorax 4.082543 0.182988 1.059003 
lowerneck -7.874612 -3.166253 3.677485 
upperneck 4.411427 -4.404146 -3.583414 
head 2.626379 -2.254281 -2.010512 
rclavicle 0.000000 0.000000 
rhumerus -37.079528 -17.251708 -81.896103 
rradius 33.366858 
rwrist 24.685161 
rhand -18.974052 -16.394580 
rfingers 0.000000 
rthumb 7.330199 -46.247586 
lclavicle 0.000000 0.000000 
lhumerus -35.257441 26.234336 77.905220 
lradius 27.201390 
lwrist -52.047188 
lhand -23.068116 -0.361659 
lfingers 0.000000 
lthumb 3.377318 29.591331 
rfemur -18.542196 4.161101 22.695831 
rtibia 24.230486 
rfoot -15.559488 -0.050460 
rtoes -22.977095 
lfemur -29.549151 -8.835358 -17.735992 
ltibia 36.085013 
lfoot -17.307009 5.117298 
ltoes -23.510477 
71
root -8.182518 17.387432 -20.493053 10.136508 7.471819 0.825316
lowerback -7.786664 0.309307 -1.521858 
upperback -0.288533 0.506048 0.149972 
thorax 4.053909 0.205963 1.066166 
lowerneck -7.881945 -3.204203 3.632666 
upperneck 4.391984 -4.452507 -3.554456 
head 2.620460 -2.278275 -1.994626 
rclavicle 0.000000 0.000000 
rhumerus -36.912188 -17.003450 -82.068688 
rradius 33.637622 
rwrist 24.301140 
rhand -19.069650 -16.453527 
rfingers 0.000000 
rthumb 7.237904 -46.309714 
lclavicle 0.000000 0.000000 
lhumerus -35.618511 26.536490 77.528513 
lradius 26.980597 
lwrist -52.413294 
lhand -23.108086 -0.270191 
lfingers 0.000000 
lthumb 3.338720 29.683401 
rfemur -18.320985 4.224175 22.773866 
rtibia 24.093695 
rfoot -15.598846 -0.157479 
rtoes -22.853777 
lfemur -29.727677 -8.943054 -17.626929 
ltibia 35.387520 
lfoot -17.238452 4.945986 
ltoes -22.720733 
72
root -8.186289 17.388701 -20.449631 10.108215 7.502162 0.814833
lowerback -7.698292 0.328560 -1.515526 
upperback -0.274001 0.531007 0.148353 
thorax 4.018767 0.219208 1.063040 
lowerneck -7.924346 -3.209741 3.557401 
upperneck 4.412305 -4.456508 -3.492835 
head 2.637527 -2.279534 -1.962880 
rclavicle 0.000000 0.000000 
rhumerus -36.729152 -16.700734 -82.255447 
rradius 33.901244 
rwrist 23.904276 
rhand -19.153185 -16.511598 
rfingers 0.000000 
rthumb 7.157284 -46.370545 
lclavicle 0.000000 0.000000 
lhumerus -36.055215 27.084178 76.982592 
lradius 26.719008 
lwrist -53.221256 
lhand -23.171132 -0.243461 
lfingers 0.000000 
lthumb 3.277804 29.711127 
rfemur -18.056221 4.238485 22.843721 
rtibia 23.956655 
rfoot -15.659110 -0.248152 
rtoes -22.917776 
lfemur -29.854759 -9.003083 -17.568527 
ltibia 34.671768 
lfoot -17.056611 4.861923 
ltoes -23.030820 
73
root -8.186984 17.390540 -20.407660 10.078279 7.578946 0.858075
lowerback -7.598774 0.338714 -1.527196 
upperback -0.238304 0.547469 0.114423 
thorax 3.999757 0.228226 1.035628 
lowerneck -8.019207 -3.220466 3.583415 
upperneck 4.446433 -4.476539 -3.479883 
head 2.665807 -2.288891 -1.967894 
rclavicle 0.000000 0.000000 
rhumerus -36.515445 -16.395150 -82.468084 
rradius 34.159348 
rwrist 23.589762 
rhand -19.224872 -16.595952 
rfingers 0.000000 
rthumb 7.088065 -46.457352 
lclavicle 0.000000 0.000000 
lhumerus -36.504246 27.733584 76.311765 
lradius 26.447917 
lwrist -54.268336 
lhand -23.267137 -0.543357 
lfingers 0.000000 
lthumb 3.185105 29.412627 
rfemur -17.774311 4.201676 22.847342 
rtibia 23.800136 
rfoot -15.741813 -0.357899 
rtoes -23.197875 
lfemur -29.962689 -9.173116 -17.575802 
ltibia 33.926886 
lfoot -16.841592 4.925791 
ltoes -24.425319 
74
root -8.190967 17.389686 -20.363280 10.054247 7.556213 0.866608
lowerback -7.546751 0.354602 -1.568257 
upperback -0.205460 0.573033 0.113721 
thorax 4.003550 0.240526 1.060499 
lowerneck -8.088181 -3.195501 3.697747 
upperneck 4.473090 -4.450335 -3.604006 
head 2.684689 -2.278801 -2.031135 
rclavicle 0.000000 0.000000 
rhumerus -36.315435 -16.054339 -82.679884 
rradius 34.424718 
rwrist 23.249122 
rhand -19.225897 -16.603813 
rfingers 0.000000 
rthumb 7.087133 -46.465213 
lclavicle 0.000000 0.000000 
lhumerus -36.978767 28.379408 75.659534 
lradius 26.216210 
lwrist -55.069997 
lhand -23.293281 -0.826518 
lfingers 0.000000 
lthumb 3.159841 29.129828 
rfemur -17.501252 4.224812 22.897751 
rtibia 23.631311 
rfoot -15.763343 -0.432496 
rtoes -23.267251 
lfemur -30.070682 -9.061073 -17.618521 
ltibia 33.161108 
lfoot -16.468657 4.914428 
ltoes -25.801634 
